# xmcd
#
# Track frame offsets: 
#        150
#        20403
#        39363
#        59870
#        82253
#        98775
#        118348
#        135210
#        151575
#
# Disc length: 2229 seconds
#
# Revision: 0
# Processed by: cddbd v1.4PL0 Copyright (c) Steve Scherf et al.
# Submitted via: ExactAudioCopy v0.90b4
#
DISCID=7008b309
DTITLE=Roberto Ciotti - Road 'n' Rail
DYEAR=1992
DGENRE=Blues
TTITLE0=Road 'n' Rail
TTITLE1=Sweet Song
TTITLE2=My New Blue Truck
TTITLE3=Early On Sunday
TTITLE4=Reason For The Blues
TTITLE5=She's Mine
TTITLE6=City Child
TTITLE7=I Give Myself To Love
TTITLE8=If You Don't Love Me
EXTD=
EXTT0=
EXTT1=
EXTT2=
EXTT3=
EXTT4=
EXTT5=
EXTT6=
EXTT7=
EXTT8=
PLAYORDER=
